<svg xmlns="http://www.w3.org/2000/svg" viewBox="0 0 128 128" width="64" height="64"><path fill="#FFF" d="M64 16.5a47.5 47.5 0 100 95 47.5 47.5 0 100-95z"/><path fill="#F16677" d="M69 92H59c-1.7 0-3-1.3-3-3s1.3-3 3-3h10c1.7 0 3 1.3 3 3s-1.3 3-3 3z"/><path fill="#454B54" d="M64 67c-1.7 0-3-1.3-3-3V34c0-1.7 1.3-3 3-3s3 1.3 3 3v30c0 1.7-1.3 3-3 3z"/><path fill="#454B54" d="M84 67H64c-1.7 0-3-1.3-3-3s1.3-3 3-3h20c1.7 0 3 1.3 3 3s-1.3 3-3 3z"/><path fill="#454B54" d="M64 58a6 6 0 100 12 6 6 0 100-12z"/><path fill="#454B54" d="M64 114.5c-27.8 0-50.5-22.7-50.5-50.5S36.2 13.5 64 13.5s50.5 22.7 50.5 50.5-22.7 50.5-50.5 50.5zm0-95c-24.5 0-44.5 20-44.5 44.5s20 44.5 44.5 44.5 44.5-20 44.5-44.5-20-44.5-44.5-44.5z"/></svg>