<svg width="24" height="19" fill="none" xmlns="http://www.w3.org/2000/svg"><path d="M21.89 0H2.11c-.325 0-.63.08-.904.211L11.953 10.96l2.409-2.315L22.796.211A2.085 2.085 0 0021.89 0zm1.899 1.206l-7.935 7.935 7.935 7.935c.131-.275.211-.58.211-.904V2.109c0-.324-.08-.628-.211-.903zm-23.578 0A2.085 2.085 0 000 2.109v14.063c0 .324.08.628.211.903l7.935-7.934L.211 1.206z" fill="#E8E8E8"/><path d="M14.86 10.135l-2.41 2.315a.701.701 0 01-.994 0l-2.315-2.315-7.936 7.935c.275.131.58.211.904.211h19.782c.324 0 .628-.08.903-.211l-7.934-7.935z" fill="#E8E8E8"/></svg>