<svg xmlns="http://www.w3.org/2000/svg" viewBox="0 0 490 490"><path d="M259.206 167.014H.004v91.472h259.202v-91.472zm-21.329 70.143H21.333v-48.813h216.544v48.813z"/><path d="M259.206 51.665H142.999v93.675h116.208V51.665zm-21.329 72.346h-73.549V72.994h73.549v51.017zM116.212 51.665H.004v93.675h116.208V51.665zm-21.329 72.346h-73.55V72.994h73.549v51.017zm270.319 12.438h-47.095v72.887h119.632l-72.537-72.887zm-27.071 20.024h18.75l32.682 32.84h-51.432v-32.84zM0 350.51v1.711h57.536c-6.84 9.01-10.91 20.23-10.91 32.39 0 29.624 24.1 53.725 53.72 53.725 29.63 0 53.729-24.1 53.729-53.725 0-12.16-4.07-23.38-10.91-32.39h188.579c-6.84 9.01-10.91 20.23-10.91 32.39 0 29.624 24.1 53.725 53.72 53.725 29.619 0 53.719-24.1 53.719-53.725 0-12.16-4.07-23.38-10.91-32.39H490V199.863L379.564 91.962h-99.43v184.001L0 275.961m100.347 141.045c-17.862 0-32.391-14.534-32.391-32.395 0-17.861 14.529-32.39 32.391-32.39 17.861 0 32.399 14.528 32.399 32.39 0 17.861-14.538 32.395-32.399 32.395zm179.788-86.114H20.024v-34.904h260.111v34.904zm94.42 86.114c-17.861 0-32.391-14.534-32.391-32.395 0-17.861 14.529-32.39 32.391-32.39 17.861 0 32.389 14.528 32.389 32.39.001 17.861-14.527 32.395-32.389 32.395zm94.116-86.114H301.464v-217.6h68.081l99.126 94.259v123.341z"/></svg>