<svg xmlns="http://www.w3.org/2000/svg"  viewBox="0 0 128 128" width="64px" height="64px"><path fill="#FFF" d="M64 16.5A47.5 47.5 0 1 0 64 111.5A47.5 47.5 0 1 0 64 16.5Z"/><path fill="#F16677" d="M69,92H59c-1.7,0-3-1.3-3-3s1.3-3,3-3h10c1.7,0,3,1.3,3,3S70.7,92,69,92z"/><path fill="#454B54" d="M64,67c-1.7,0-3-1.3-3-3V34c0-1.7,1.3-3,3-3s3,1.3,3,3v30C67,65.7,65.7,67,64,67z"/><path fill="#454B54" d="M84,67H64c-1.7,0-3-1.3-3-3s1.3-3,3-3h20c1.7,0,3,1.3,3,3S85.7,67,84,67z"/><path fill="#454B54" d="M64 58A6 6 0 1 0 64 70A6 6 0 1 0 64 58Z"/><path fill="#454B54" d="M64,114.5c-27.8,0-50.5-22.7-50.5-50.5S36.2,13.5,64,13.5s50.5,22.7,50.5,50.5S91.8,114.5,64,114.5z M64,19.5c-24.5,0-44.5,20-44.5,44.5s20,44.5,44.5,44.5s44.5-20,44.5-44.5S88.5,19.5,64,19.5z"/></svg>